<svg xmlns="http://www.w3.org/2000/svg" width="60" height="60" viewBox="0 0 60 60">
  <g id="check_btn" data-name="check btn" transform="translate(-758 -1084)">
    <path id="Path_21" data-name="Path 21" d="M30,0A30,30,0,1,1,0,30,30,30,0,0,1,30,0Z" transform="translate(758 1084)" fill="#bbffb2"/>
    <g id="done_icon" data-name="done icon" transform="translate(772.661 1103.523)">
      <path id="Path_20" data-name="Path 20" d="M21.5,45.013a1.73,1.73,0,0,0,1.18.463,1.594,1.594,0,0,0,1.18-.506L44.124,24.707a1.7,1.7,0,0,0-2.4-2.4L22.68,41.432l-8.973-8.973a1.7,1.7,0,0,0-2.4,2.4Z" transform="translate(-10.8 -21.8)" fill="#119100"/>
    </g>
  </g>
</svg>
